<svg xmlns="http://www.w3.org/2000/svg" width="41" height="8" viewBox="0 0 41 8" fill="none">
  <g opacity="0.2">
    <path fill-rule="evenodd" clip-rule="evenodd" d="M4.22656 8C6.4357 8 8.22656 6.20914 8.22656 4C8.22656 1.79086 6.4357 0 4.22656 0C2.01742 0 0.226562 1.79086 0.226562 4C0.226562 6.20914 2.01742 8 4.22656 8Z" fill="white"/>
    <path d="M7.97656 4C7.97656 6.07107 6.29763 7.75 4.22656 7.75C2.15549 7.75 0.476562 6.07107 0.476562 4C0.476562 1.92893 2.15549 0.25 4.22656 0.25C6.29763 0.25 7.97656 1.92893 7.97656 4Z" stroke="black" stroke-opacity="0.12" stroke-width="0.5"/>
  </g>
  <g opacity="0.2">
    <path fill-rule="evenodd" clip-rule="evenodd" d="M20.2266 8C22.4357 8 24.2266 6.20914 24.2266 4C24.2266 1.79086 22.4357 0 20.2266 0C18.0174 0 16.2266 1.79086 16.2266 4C16.2266 6.20914 18.0174 8 20.2266 8Z" fill="white"/>
    <path d="M23.9766 4C23.9766 6.07107 22.2976 7.75 20.2266 7.75C18.1555 7.75 16.4766 6.07107 16.4766 4C16.4766 1.92893 18.1555 0.25 20.2266 0.25C22.2976 0.25 23.9766 1.92893 23.9766 4Z" stroke="black" stroke-opacity="0.12" stroke-width="0.5"/>
  </g>
  <g opacity="0.2">
    <path fill-rule="evenodd" clip-rule="evenodd" d="M36.2266 8C38.4357 8 40.2266 6.20914 40.2266 4C40.2266 1.79086 38.4357 0 36.2266 0C34.0174 0 32.2266 1.79086 32.2266 4C32.2266 6.20914 34.0174 8 36.2266 8Z" fill="white"/>
    <path d="M39.9766 4C39.9766 6.07107 38.2976 7.75 36.2266 7.75C34.1555 7.75 32.4766 6.07107 32.4766 4C32.4766 1.92893 34.1555 0.25 36.2266 0.25C38.2976 0.25 39.9766 1.92893 39.9766 4Z" stroke="black" stroke-opacity="0.12" stroke-width="0.5"/>
  </g>
</svg>