<svg width="14" height="19" viewBox="0 0 14 19" fill="none" xmlns="http://www.w3.org/2000/svg">
<path d="M12.832 3.55469C13.2539 3.97656 13.5 4.53906 13.5 5.13672V16C13.5 17.2656 12.4805 18.25 11.25 18.25H2.25C0.984375 18.25 0 17.2656 0 16V2.5C0 1.26953 0.984375 0.25 2.25 0.25H8.61328C9.21094 0.25 9.77344 0.496094 10.1953 0.917969L12.832 3.55469ZM11.25 16.5625C11.5312 16.5625 11.8125 16.3164 11.7773 16V5.875H9C8.36719 5.875 7.875 5.38281 7.875 4.75V1.97266H2.25C1.93359 1.97266 1.6875 2.21875 1.6875 2.53516V16.0352C1.6875 16.3164 1.93359 16.5625 2.25 16.5625H11.25Z" fill="url(#paint0_linear_852_4193)"/>
<defs>
<linearGradient id="paint0_linear_852_4193" x1="2.00064" y1="20.4289" x2="18.7709" y2="13.0982" gradientUnits="userSpaceOnUse">
<stop stop-color="#5F38FB"/>
<stop offset="0.640625" stop-color="#CF447B"/>
<stop offset="1" stop-color="#F9774B"/>
</linearGradient>
</defs>
</svg>
