<svg width="18" height="18" viewBox="0 0 18 18" fill="none" xmlns="http://www.w3.org/2000/svg">
<path d="M5.80078 13.7422C5.80078 13.6719 5.73047 13.6016 5.625 13.6016C5.51953 13.6016 5.44922 13.6719 5.44922 13.7422C5.44922 13.8125 5.51953 13.8828 5.625 13.8477C5.73047 13.8477 5.80078 13.8125 5.80078 13.7422ZM4.71094 13.5664C4.74609 13.4961 4.85156 13.4609 4.95703 13.4961C5.0625 13.5312 5.09766 13.6016 5.09766 13.6719C5.0625 13.7422 4.95703 13.7773 4.88672 13.7422C4.78125 13.7422 4.71094 13.6367 4.71094 13.5664ZM6.29297 13.5312C6.36328 13.4961 6.46875 13.5664 6.46875 13.6367C6.50391 13.707 6.43359 13.7422 6.32812 13.7773C6.22266 13.8125 6.11719 13.7773 6.11719 13.707C6.11719 13.6016 6.1875 13.5312 6.29297 13.5312ZM8.57812 0.03125C13.4648 0.03125 17.4375 3.75781 17.4375 8.60938C17.4375 12.5117 15.0469 15.8516 11.5312 17.0117C11.0742 17.1172 10.8984 16.8359 10.8984 16.5898C10.8984 16.3086 10.9336 14.832 10.9336 13.6719C10.9336 12.8281 10.6523 12.3008 10.3359 12.0195C12.3047 11.8086 14.3789 11.5273 14.3789 8.15234C14.3789 7.16797 14.0273 6.71094 13.4648 6.07812C13.5352 5.83203 13.8516 4.91797 13.3594 3.6875C12.6211 3.44141 10.9336 4.63672 10.9336 4.63672C10.2305 4.42578 9.49219 4.35547 8.71875 4.35547C7.98047 4.35547 7.24219 4.42578 6.53906 4.63672C6.53906 4.63672 4.81641 3.47656 4.11328 3.6875C3.62109 4.91797 3.90234 5.83203 4.00781 6.07812C3.44531 6.71094 3.16406 7.16797 3.16406 8.15234C3.16406 11.5273 5.16797 11.8086 7.13672 12.0195C6.85547 12.2656 6.64453 12.6523 6.57422 13.2148C6.04688 13.4609 4.78125 13.8477 4.00781 12.4766C3.51562 11.6328 2.63672 11.5625 2.63672 11.5625C1.79297 11.5625 2.60156 12.125 2.60156 12.125C3.16406 12.3711 3.55078 13.3906 3.55078 13.3906C4.07812 14.9727 6.53906 14.4453 6.53906 14.4453C6.53906 15.1836 6.53906 16.3789 6.53906 16.625C6.53906 16.8359 6.39844 17.1172 5.94141 17.0469C2.42578 15.8516 0 12.5117 0 8.60938C0 3.75781 3.72656 0.03125 8.57812 0.03125ZM3.41016 12.1602C3.44531 12.125 3.51562 12.1602 3.58594 12.1953C3.65625 12.2656 3.65625 12.3711 3.62109 12.4062C3.55078 12.4414 3.48047 12.4062 3.41016 12.3711C3.375 12.3008 3.33984 12.1953 3.41016 12.1602ZM3.02344 11.8789C3.05859 11.8438 3.09375 11.8438 3.16406 11.8789C3.23438 11.9141 3.26953 11.9492 3.26953 11.9844C3.23438 12.0547 3.16406 12.0547 3.09375 12.0195C3.02344 11.9844 2.98828 11.9492 3.02344 11.8789ZM4.14844 13.1445C4.21875 13.0742 4.32422 13.1094 4.39453 13.1797C4.46484 13.25 4.46484 13.3555 4.42969 13.3906C4.39453 13.4609 4.28906 13.4258 4.21875 13.3555C4.11328 13.2852 4.11328 13.1797 4.14844 13.1445ZM3.76172 12.6172C3.83203 12.582 3.90234 12.6172 3.97266 12.6875C4.00781 12.7578 4.00781 12.8633 3.97266 12.8984C3.90234 12.9336 3.83203 12.8984 3.76172 12.8281C3.69141 12.7578 3.69141 12.6523 3.76172 12.6172Z" fill="url(#paint0_linear_4930_626)"/>
<defs>
<linearGradient id="paint0_linear_4930_626" x1="2.57225" y1="18.6431" x2="20.3613" y2="6.79399" gradientUnits="userSpaceOnUse">
<stop stop-color="#5F38FB"/>
<stop offset="0.640625" stop-color="#CF447B"/>
<stop offset="1" stop-color="#F9774B"/>
</linearGradient>
</defs>
</svg>
